Coordinates
version=1
nRows=5
nColumns=40
inDegrees=yes

Units are S.I. units (second, meters, Newtons, ...)
Angles are in degrees.

endheader
time	pelvis_tilt	pelvis_list	pelvis_rotation	pelvis_tx	pelvis_ty	pelvis_tz	hip_flexion_r	hip_adduction_r	hip_rotation_r	knee_angle_r	knee_angle_r_beta	ankle_angle_r	subtalar_angle_r	mtp_angle_r	hip_flexion_l	hip_adduction_l	hip_rotation_l	knee_angle_l	knee_angle_l_beta	ankle_angle_l	subtalar_angle_l	mtp_angle_l	lumbar_extension	lumbar_bending	lumbar_rotation	arm_flex_r	arm_add_r	arm_rot_r	elbow_flex_r	pro_sup_r	wrist_flex_r	wrist_dev_r	arm_flex_l	arm_add_l	arm_rot_l	elbow_flex_l	pro_sup_l	wrist_flex_l	wrist_dev_l
     21.85500000	     -5.74128844	     -3.90621401	      5.83537084	      0.82837436	      0.91670169	      0.45833284	     -2.03178515	     -0.16082652	    -16.73647070	     20.19946066	     20.19946066	     18.28112624	      4.85394841	     -7.05496416	     29.16958248	     -2.38411037	      2.86941284	     28.78257448	     28.78257448	      8.72347136	    -16.03614490	     10.02096067	     -7.27675117	      5.36297602	      4.74137984	     32.99397739	    -15.68361989	     -7.23795420	     72.73870160	     45.57221841	      0.00000000	      0.00000000	     -6.56136330	     -8.29476821	     -5.19899569	     41.54659298	     45.63285296	      0.00000000	      0.00000000
     21.86800000	     -5.78391636	     -3.73352964	      5.60895031	      0.82965916	      0.91736230	      0.45527645	     -1.48041345	     -0.94493860	    -16.53088599	     22.16242440	     22.16242440	     17.79911678	      4.53061035	     -7.94198083	     28.58616235	     -2.14667244	      2.57671057	     28.81223087	     28.81223087	      9.36201604	    -15.98108894	      9.95231244	     -7.30457315	      5.33420867	      5.00943352	     31.67625433	    -15.94460621	     -7.44821054	     70.95863721	     45.63099181	      0.00000000	      0.00000000	     -5.99282061	     -8.46030676	     -5.47713792	     42.51428300	     45.68039036	      0.00000000	      0.00000000
     21.88100000	     -5.83225569	     -3.66557759	      5.43830432	      0.83084146	      0.91796908	      0.45225458	     -0.88568377	     -1.56530632	    -16.18365736	     23.98653191	     23.98653191	     16.05840888	      3.48286342	    -11.91270680	     28.05005381	     -2.00095377	      2.34606013	     28.86971175	     28.86971175	     10.10140211	    -15.83928725	     10.30319751	     -7.22212587	      5.38764500	      4.34909049	     31.48570815	    -14.94876245	     -8.43426743	     66.50480571	     45.79227105	      0.00000000	      0.00000000	     -6.56241493	     -8.76404564	     -6.15866928	     45.41701655	     45.79604972	      0.00000000	      0.00000000
     21.89400000	     -5.81265405	     -3.52912233	      5.23602055	      0.83188676	      0.91865171	      0.44922391	      0.05117756	     -2.39967479	    -15.80397446	     26.69813982	     26.69813982	     15.29868778	      2.78637358	    -12.77877462	     27.36809917	     -1.82514943	      1.96616730	     28.79221864	     28.79221864	     10.61718444	    -15.62737387	     10.05235347	     -7.33688712	      5.42550965	      4.53249504	     29.95372752	    -15.31617764	     -8.49039121	     65.02940230	     45.83428395	      0.00000000	      0.00000000	     -5.81741499	     -8.98902959	     -6.39197289	     46.22450413	     45.83778323	      0.00000000	      0.00000000
     21.90700000	     -5.91280010	     -3.43300990	      5.01093585	      0.83268769	      0.91914456	      0.44631791	      1.39027425	     -3.19748157	    -15.15926594	     29.76837017	     29.76837017	     14.12298677	      1.61672245	    -13.99322060	     26.79769842	     -1.69451185	      1.57292947	     28.63998159	     28.63998159	     11.09029873	    -15.38095015	      9.76396942	     -7.31845103	      5.46467933	      4.76314799	     28.43411569	    -15.63777470	     -8.78410404	     62.97477812	     45.90420637	      0.00000000	      0.00000000	     -5.18624423	     -9.23704796	     -6.60068746	     47.42761629	     45.87992981	      0.00000000	      0.00000000
